<?xml version="1.0" encoding="UTF-8"?>
<svg version="1.1" xmlns="http://www.w3.org/2000/svg" width="16" height="16">
<path d="M0 0 C5.28 0 10.56 0 16 0 C16 5.28 16 10.56 16 16 C10.72 16 5.44 16 0 16 C0 10.72 0 5.44 0 0 Z " fill="#171B20" transform="translate(0,0)"/>
<path d="M0 0 C1.37478516 0.01740234 1.37478516 0.01740234 2.77734375 0.03515625 C3.69644531 0.04417969 4.61554687 0.05320313 5.5625 0.0625 C6.27277344 0.07410156 6.98304687 0.08570313 7.71484375 0.09765625 C8.09617674 2.08906185 8.42809957 4.09044702 8.71484375 6.09765625 C7.71484375 7.09765625 7.71484375 7.09765625 5.46484375 7.23046875 C4.55734375 7.22789063 3.64984375 7.2253125 2.71484375 7.22265625 C1.35359375 7.22652344 1.35359375 7.22652344 -0.03515625 7.23046875 C-2.28515625 7.09765625 -2.28515625 7.09765625 -3.28515625 6.09765625 C-3.41015625 3.59765625 -3.41015625 3.59765625 -3.28515625 1.09765625 C-2.28515625 0.09765625 -2.28515625 0.09765625 0 0 Z " fill="#124470" transform="translate(5.28515625,3.90234375)"/>
<path d="M0 0 C1.65 0 3.3 0 5 0 C5.38133299 1.9914056 5.71325582 3.99279077 6 6 C5 7 5 7 2.4375 7.0625 C1.2309375 7.0315625 1.2309375 7.0315625 0 7 C0 4.69 0 2.38 0 0 Z " fill="#A5A7A9" transform="translate(8,4)"/>
</svg>
